<svg xmlns="http://www.w3.org/2000/svg" viewBox="0 0 128 128" width="128" height="128">
  <!-- 背景圆形 -->
  <circle cx="64" cy="64" r="60" fill="#790fe9" stroke="#5e0eb3" stroke-width="2"/>
  
  <!-- 书籍图形 -->
  <rect x="40" y="35" width="48" height="35" rx="3" fill="#ffffff" opacity="0.9"/>
  <rect x="42" y="37" width="44" height="31" rx="2" fill="#f8f9fa"/>
  
  <!-- 书籍线条 -->
  <line x1="45" y1="42" x2="75" y2="42" stroke="#790fe9" stroke-width="1.5" opacity="0.7"/>
  <line x1="45" y1="47" x2="80" y2="47" stroke="#790fe9" stroke-width="1.5" opacity="0.7"/>
  <line x1="45" y1="52" x2="72" y2="52" stroke="#790fe9" stroke-width="1.5" opacity="0.7"/>
  <line x1="45" y1="57" x2="78" y2="57" stroke="#790fe9" stroke-width="1.5" opacity="0.7"/>
  <line x1="45" y1="62" x2="70" y2="62" stroke="#790fe9" stroke-width="1.5" opacity="0.7"/>
  
  <!-- 星星评级 -->
  <g transform="translate(35, 75)">
    <!-- 5颗星星 -->
    <path d="M8 2 L10 8 L16 8 L11.5 12 L13.5 18 L8 15 L2.5 18 L4.5 12 L0 8 L6 8 Z" fill="#ffd700" stroke="#ffb300" stroke-width="0.5"/>
    <path d="M20 2 L22 8 L28 8 L23.5 12 L25.5 18 L20 15 L14.5 18 L16.5 12 L12 8 L18 8 Z" fill="#ffd700" stroke="#ffb300" stroke-width="0.5"/>
    <path d="M32 2 L34 8 L40 8 L35.5 12 L37.5 18 L32 15 L26.5 18 L28.5 12 L24 8 L30 8 Z" fill="#ffd700" stroke="#ffb300" stroke-width="0.5"/>
    <path d="M44 2 L46 8 L52 8 L47.5 12 L49.5 18 L44 15 L38.5 18 L40.5 12 L36 8 L42 8 Z" fill="#ffd700" stroke="#ffb300" stroke-width="0.5"/>
    <path d="M56 2 L58 8 L64 8 L59.5 12 L61.5 18 L56 15 L50.5 18 L52.5 12 L48 8 L54 8 Z" fill="#e0e0e0" stroke="#bdbdbd" stroke-width="0.5"/>
  </g>
  
  <!-- NJU文字 -->
  <text x="64" y="108" font-family="Arial, sans-serif" font-size="14" font-weight="bold" text-anchor="middle" fill="#ffffff">NJU</text>
</svg>